<svg id="Capa_1" enable-background="new 0 0 512 512" height="512" viewBox="0 0 512 512" width="512" xmlns="http://www.w3.org/2000/svg"><g><path d="m396.263 117.704-309.836 36.118 20.233 321.173c1.31 20.803 18.565 37.005 39.409 37.005h209.559c20.844 0 38.099-16.202 39.409-37.005z" fill="#efedef"/><path d="m384.366 153.822-20.233 321.173c-1.311 20.803-18.565 37.005-39.41 37.005h41.207c20.844 0 38.099-16.202 39.409-37.005l20.233-321.173-21.035-10.302z" fill="#d7d0d6"/><g><g><path d="m327.825 101.014c-10.904 0-12.352-5.026-12.352-15.93l-7.392-37.135c0-4.666-3.796-8.462-8.462-8.462h-87.239c-4.666 0-8.462 3.796-8.462 8.462v44.919c0 10.904-8.84 19.744-19.744 19.744s-19.744-8.84-19.744-19.744v-44.919c.001-26.439 21.511-47.949 47.95-47.949h76.938c26.439 0 47.949 21.51 47.949 47.949l6.537 44.382c0 10.904-5.075 8.683-15.979 8.683z" fill="#efedef"/></g></g><g><path d="m299.62 0h-39.487c26.439 0 47.949 21.51 47.949 47.949v44.919c0 10.904 8.84 19.744 19.744 19.744s19.744-8.84 19.744-19.744v-44.919c-.001-26.439-21.511-47.949-47.95-47.949z" fill="#d7d0d6"/></g><path d="m406.565 81.586h-321.734c-15.577 0-28.205 12.628-28.205 28.205v32.748c0 6.231 5.051 11.282 11.282 11.282h355.58c6.231 0 11.282-5.051 11.282-11.282v-32.748c0-15.577-12.628-28.205-28.205-28.205z" fill="#5b596d"/><g><path d="m256 476.257c-9.957 0-18.028-8.071-18.028-18.028v-250.85c0-9.957 8.072-18.028 18.028-18.028s18.028 8.071 18.028 18.028v250.849c0 9.957-8.071 18.029-18.028 18.029z" fill="#5b596d"/></g><g><path d="m178.477 476.258c-9.289 0-17.174-7.132-17.948-16.553l-20.604-250.849c-.815-9.924 6.569-18.629 16.492-19.444 9.932-.803 18.628 6.569 19.444 16.492l20.604 250.849c.815 9.924-6.569 18.629-16.492 19.444-.501.04-1.001.061-1.496.061z" fill="#5b596d"/></g><g><path d="m333.523 476.258c-.495 0-.994-.02-1.496-.061-9.923-.815-17.307-9.52-16.492-19.444l20.604-250.849c.815-9.923 9.519-17.305 19.444-16.492 9.923.815 17.307 9.52 16.492 19.444l-20.605 250.848c-.774 9.422-8.66 16.554-17.947 16.554z" fill="#5b596d"/></g><path d="m427.169 81.586h-51.509c15.577 0 28.205 12.628 28.205 28.205v32.748c0 6.231-5.051 11.282-11.282 11.282h51.509c6.231 0 11.282-5.051 11.282-11.282v-32.748c0-15.577-12.628-28.205-28.205-28.205z" fill="#3e3e4d"/></g></svg>